PathFileType	4	(X/Y/Z)	 s04c0402.trc
DataRate	CameraRate	NumFrames	NumMarkers	Units	OrigDataRate	OrigDataStartFrame	OrigNumFrames
200	200	4	50	mm	200	751	2000
Frame#	Time	racr			lacr			c7			jug			rlel			rdr			llel			ldr			s2			lic			ric			lasi			rasi			rpsi			lpsi			rgt			lgt			rth1			rth2			rth3			rth4			rlfc			rmfc			rsh1			rsh2			rsh3			rsh4			rlmal			rmmal			rcal			rtoe			rmt5			lth1			lth2			lth4			lth3			llfc			lmfc			lsh1			lsh2			lsh3			lsh4			llmal			lmmal			lcal			ltoe			lmt5			SBIKE			LBIKE			RBIKE			
		X1	Y1	Z1	X2	Y2	Z2	X3	Y3	Z3	X4	Y4	Z4	X5	Y5	Z5	X6	Y6	Z6	X7	Y7	Z7	X8	Y8	Z8	X9	Y9	Z9	X10	Y10	Z10	X11	Y11	Z11	X12	Y12	Z12	X13	Y13	Z13	X14	Y14	Z14	X15	Y15	Z15	X16	Y16	Z16	X17	Y17	Z17	X18	Y18	Z18	X19	Y19	Z19	X20	Y20	Z20	X21	Y21	Z21	X22	Y22	Z22	X23	Y23	Z23	X24	Y24	Z24	X25	Y25	Z25	X26	Y26	Z26	X27	Y27	Z27	X28	Y28	Z28	X29	Y29	Z29	X30	Y30	Z30	X31	Y31	Z31	X32	Y32	Z32	X33	Y33	Z33	X34	Y34	Z34	X35	Y35	Z35	X36	Y36	Z36	X37	Y37	Z37	X38	Y38	Z38	X39	Y39	Z39	X40	Y40	Z40	X41	Y41	Z41	X42	Y42	Z42	X43	Y43	Z43	X44	Y44	Z44	X45	Y45	Z45	X46	Y46	Z46	X47	Y47	Z47	X48	Y48	Z48	X49	Y49	Z49	X50	Y50	Z50	
751	3.7550	800.262592	1338.034065	-118.852903	855.487155	1247.147669	-422.312905	833.106374	1388.510370	-292.495392	770.748083	1239.997202	-271.051724	565.166511	1172.275626	41.614805	698.078372	942.224889	-57.727361	615.178042	1155.637729	-596.618409	700.444465	948.336069	-460.024102	232.989769	1299.062613	-236.550884	359.317638	1280.890995	-410.891195	402.350553	1254.691388	-91.816904	395.228073	1230.150240	-379.570664	420.478185	1192.889211	-143.094779	281.753427	1328.258784	-198.175577	269.734311	1340.042549	-269.785430	329.866601	1201.808734	-75.442458	323.618662	1211.012425	-437.100487	345.966704	1038.745999	-57.207954	365.462347	953.111793	-66.653704	343.119192	870.586641	-70.448818	398.481352	954.477220	-84.233561	331.689831	721.479491	-96.876510	305.187126	710.965501	-209.556909	254.505403	621.573196	-72.172073	225.536682	536.811248	-90.273763	158.986840	482.563834	-98.552453	254.100335	522.677566	-112.958566	85.907890	346.481407	-107.020314	110.378729	346.434370	-191.218157	18.661932	359.251631	-146.538492	244.962906	157.522469	-157.591877	178.811469	176.454461	-99.803535	374.390259	1139.868642	-441.101219	451.794624	1100.377673	-443.478029	475.683772	1126.740646	-432.726012	500.553566	1026.588949	-448.329712	602.018892	903.003402	-429.461918	627.368843	872.146630	-317.186507	538.999748	810.420628	-454.207922	497.712123	734.292572	-438.102326	422.315662	686.600977	-437.664660	519.743979	716.538417	-411.469873	317.800902	579.737199	-434.197452	324.906473	586.765770	-345.699156	233.677821	596.911591	-396.247869	487.459509	433.630167	-393.826968	410.470827	438.329547	-458.643500	-177.122959	936.912650	-279.465751	-3.327168	85.836096	-484.553102	-15.081369	80.632656	-84.201114	
752	3.7600	799.245660	1337.117155	-118.994461	854.300590	1244.624511	-421.652662	833.249029	1387.308278	-292.594274	769.474210	1239.330490	-271.250312	563.657305	1172.056906	41.283156	697.930270	942.230020	-57.281781	615.238854	1154.692223	-597.604633	700.458077	948.340527	-459.958546	233.618707	1302.467792	-238.693309	359.971944	1281.376730	-412.010482	401.862973	1258.047002	-92.853523	395.330350	1230.013567	-380.215803	419.980124	1195.384542	-142.938656	281.950395	1331.803111	-199.618991	270.712571	1342.637353	-272.248848	330.165571	1205.224665	-75.856447	323.496624	1212.997733	-437.863244	350.456160	1040.922489	-58.287172	372.589336	955.986847	-68.343108	353.047032	872.879247	-71.722030	405.147022	958.423261	-86.663186	344.519661	724.031154	-97.455339	317.151049	713.987069	-209.502309	262.921074	625.997787	-72.462271	231.263788	542.165989	-90.985115	162.900467	490.303530	-99.586624	258.972098	527.408284	-113.916254	84.571759	356.915386	-108.920457	110.497076	355.734963	-192.900958	18.222062	371.588262	-150.562421	236.831784	160.564335	-156.040802	171.003689	183.435960	-99.366561	372.647095	1140.385390	-441.712769	449.139852	1098.958634	-443.965536	473.503825	1124.897568	-433.556617	495.834469	1024.040058	-448.909827	596.124887	897.763387	-429.432173	621.698891	866.876409	-317.672547	534.710460	802.425915	-454.825954	495.146401	726.482051	-439.368364	420.288673	677.085767	-438.538219	516.923680	709.118345	-411.296451	317.889715	568.573218	-435.251734	322.490855	575.982242	-346.013594	232.815938	582.289411	-397.724568	493.949535	431.240506	-393.879203	417.172182	431.919320	-458.958295	-177.091054	936.943165	-279.577913	-3.343957	85.821703	-484.576866	-15.077627	80.678761	-84.216569	
753	3.7650	798.460650	1336.411881	-118.936671	852.852271	1242.568695	-420.932684	833.397115	1386.443069	-292.312490	768.143164	1239.029053	-271.164490	562.142175	1171.765507	40.882042	697.687842	942.242594	-57.199707	615.292963	1153.693183	-598.574661	700.341526	948.254129	-459.763611	234.279584	1305.639390	-240.971832	363.182004	1281.555111	-414.929737	401.223141	1261.241991	-93.892236	395.553898	1229.658990	-380.837697	419.479820	1197.735550	-142.869589	282.513444	1335.035693	-201.912316	271.734069	1344.990880	-274.664902	330.667751	1208.687811	-76.237631	323.247513	1214.364570	-438.594933	355.284856	1043.331676	-59.221692	380.066229	959.092262	-70.244184	363.398567	875.435653	-73.097878	412.076869	962.670416	-89.094328	358.085464	726.771127	-97.717520	329.743730	716.998519	-209.507880	271.721594	630.748023	-72.724187	237.545477	548.028843	-91.606541	167.521505	498.335253	-100.569513	264.812130	532.550676	-114.775471	84.268922	367.471111	-110.574136	111.460322	365.208542	-194.581032	19.125984	384.274375	-154.399881	229.408550	163.911187	-154.331376	163.685440	190.647813	-99.474390	370.980844	1140.125672	-442.549874	446.375010	1096.930471	-444.731270	471.451839	1122.226637	-434.445212	491.188699	1020.755696	-449.278131	589.676372	891.912759	-429.464874	615.515868	861.189074	-318.264717	530.324306	793.694611	-455.809849	492.101309	716.909564	-439.664173	418.221637	666.407381	-439.084456	514.070632	700.566915	-411.421556	317.769621	556.728787	-436.262551	319.802638	564.216430	-346.059997	232.014263	566.883062	-398.851718	500.189462	428.686401	-394.586785	423.126247	424.840854	-459.374037	-177.013115	936.984912	-279.763204	-3.325564	85.831746	-484.578913	-15.075515	80.746128	-84.229856	
754	3.7700	797.884007	1335.790105	-118.581798	851.329151	1240.979416	-420.309704	833.523573	1385.661193	-291.784434	766.875503	1238.800423	-270.749502	560.620214	1171.373479	40.393398	697.782912	942.509807	-57.372660	615.207782	1152.573471	-599.514674	700.093315	947.996653	-459.375019	235.045706	1308.141329	-243.230608	364.082003	1281.462002	-416.366892	400.570191	1264.160681	-94.962872	395.891209	1229.088961	-381.442072	419.003875	1199.803299	-142.884771	283.128309	1337.948971	-204.676278	272.726247	1346.951046	-277.006127	331.307901	1212.002043	-76.864329	322.870469	1215.048627	-439.284071	360.356705	1045.736982	-60.681646	387.719969	962.513661	-72.146154	374.001351	878.271758	-74.388100	419.280141	967.099207	-91.456169	371.436986	729.661218	-98.533969	342.878521	719.920196	-209.807020	280.707005	635.861655	-73.313392	244.192326	554.251159	-92.165518	172.701932	506.677487	-101.535781	270.950157	538.079615	-115.616734	84.668152	378.211970	-112.065451	113.214210	374.912081	-196.219166	21.300965	397.322651	-157.732380	222.299454	167.086167	-152.893174	157.178477	198.493722	-100.400345	369.368516	1139.051379	-443.559471	443.816594	1094.179662	-445.478470	469.321844	1118.770265	-435.569825	486.658109	1016.711709	-449.640352	582.710190	885.333584	-429.749469	608.862866	854.678408	-318.903250	525.958697	784.138534	-456.614489	488.825003	706.731683	-439.488590	416.275282	654.851451	-439.521488	511.290521	690.793133	-411.940954	317.634471	543.965140	-437.025100	316.451115	550.954002	-346.451086	231.602801	550.499765	-399.598800	505.476167	424.637218	-394.936286	428.701806	417.299999	-459.680248	-176.904190	937.010206	-280.002330	-3.305740	85.795010	-484.607058	-15.040696	80.760295	-84.275851	
